<?xml version="1.0" encoding="UTF-8" standalone="no"?>
<svg
   xmlns:dc="http://purl.org/dc/elements/1.1/"
   xmlns:cc="http://creativecommons.org/ns#"
   xmlns:rdf="http://www.w3.org/1999/02/22-rdf-syntax-ns#"
   xmlns:svg="http://www.w3.org/2000/svg"
   xmlns="http://www.w3.org/2000/svg"
   width="189"
   height="50"
   id="svg2"
   version="1.0">
  <defs
     id="defs4" />
  <metadata
     id="metadata7">
    <rdf:RDF>
      <cc:Work
         rdf:about="">
        <dc:format>image/svg+xml</dc:format>
        <dc:type
           rdf:resource="http://purl.org/dc/dcmitype/StillImage" />
        <dc:title></dc:title>
      </cc:Work>
    </rdf:RDF>
  </metadata>
  <g
     id="layer1"
     transform="matrix(0.29289305,0,0,0.293758,-49.707834,-122.60725)">
    <path
       style="opacity:1;fill:#000000;fill-opacity:1;fill-rule:nonzero;stroke:none;stroke-width:8;stroke-linecap:round;stroke-linejoin:miter;stroke-miterlimit:4;stroke-dasharray:none;stroke-dashoffset:0;stroke-opacity:1"
       d="m 214.71326,417.58314 c -24.83999,0 -45,20.16 -45,45 l 0.3469,124.99999 40,0 -0.3469,-83.15624 0,-41.84375 c 1e-5,-2.5875 1.97974,-4.7438 4.5,-5 0.16802,-0.0171 0.3275,0 0.5,0 1.38,0 2.62625,0.56375 3.53125,1.46875 L 323.1875,574.1875 c 8.14501,8.14501 19.3925,13.1875 31.8125,13.1875 24.83999,0 45.00001,-20.15999 45,-45 l 0,-125 -40,0 0,80.28125 0,44.71875 c 0,0.0644 0.002,0.12365 0,0.1875 -0.10123,2.67095 -2.30444,4.8125 -5,4.8125 -1.38,10e-6 -2.62625,-0.56375 -3.53125,-1.46875 L 246.52576,430.77064 c -8.14499,-8.14499 -19.39251,-13.1875 -31.8125,-13.1875 z"
       id="rect1904" />
    <path
       style="opacity:1;fill:#000000;fill-opacity:1;fill-rule:nonzero;stroke:none;stroke-width:8;stroke-linecap:round;stroke-linejoin:miter;stroke-miterlimit:4;stroke-dasharray:none;stroke-dashoffset:0;stroke-opacity:1"
       d="m 420,417.375 0,125 c 0,24.83999 20.16,45 45,45 l 170,0 c 27.81443,-1.31299 49.99998,-24.26872 50,-52.40625 0,-28.13759 -22.18549,-51.12459 -50,-52.4375 l 0,-0.15625 -110,0 c -5.56289,-0.31309 -9.99999,-5.79062 -10,-12.5 0,-6.70941 4.43709,-12.18693 10,-12.5 l 180,0 0,130 40,0 0,-130 70,0 0,-40 -290,0 0,0.15625 c -27.81451,1.31291 -50,24.29991 -50,52.4375 2e-5,28.13753 22.18557,51.09326 50,52.40625 l 110,0 c 5.56291,0.31307 10,5.79059 10,12.5 -10e-6,6.70938 -4.43711,12.18691 -10,12.5 l -125.28125,0 -44.71875,0 c -2.75992,-10e-6 -5,-2.23993 -5,-5 l 0,-44.71875 0,-80.28125 -40,0 z"
       id="rect2795" />
  </g>
</svg>
