<?xml version="1.0" encoding="UTF-8" standalone="no"?>
<svg xmlns="http://www.w3.org/2000/svg" id="svg2" xml:space="preserve" style="enable-background:new 0 0 100 100;" viewBox="0 0 100 100" height="100px" width="100px" y="0px" x="0px" version="1.1">
	<defs id="defs32" />
	<style id="style4" type="text/css">
		.st0{fill:#8C3123;}
		.st1{fill:#E05243;}
		.st2{fill:#5E1F18;}
		.st3{fill:#F2B0A9;}
		.st4{fill-rule:evenodd;clip-rule:evenodd;fill:#FFFFFF;}
		.st5{clip-path:url(#SVGID_2_);enable-background:new    ;}
		.st6{clip-path:url(#SVGID_4_);enable-background:new    ;}
		.st7{fill:#FFFFFF;}
		.st8{enable-background:new    ;}
		.st9{fill-rule:evenodd;clip-rule:evenodd;fill:#8C3123;}
		.st10{fill-rule:evenodd;clip-rule:evenodd;fill:#E05243;}
	</style>
	<g id="Layer_1">
		<g id="g7">
			<path id="path9" d="M50,25.1L76.5,29l0,2.3c0,3.5-11.9,6.2-26.5,6.2c-14.6,0-26.5-2.8-26.5-6.2l0-2.5L50,25.1z" class="st0" />
		</g>
		<g id="g11">
			<path id="path13" d="M50,41.8c11.1,0,20.6-1.6,24.5-3.9l1.3-2.2l0.5-2v2.5l-8.7,37c0,2.3-7.9,4.1-17.7,4.1    c-9.8,0-17.7-1.8-17.7-4.1l-8.7-37l0-2.5l2,4.2C29.7,40.3,39.1,41.8,50,41.8z" class="st0" />
		</g>
		<g id="g15">
			<path id="path17" d="M50,22.6c14.6,0,26.5,2.8,26.5,6.2c0,3.5-11.9,6.2-26.5,6.2c-14.6,0-26.5-2.8-26.5-6.2    C23.5,25.4,35.4,22.6,50,22.6z" class="st1" />
		</g>
		<g id="g19">
			<path id="path21" d="M50,39.3c13.6,0,24.9-2.4,26.3-5.5l-8.7,37c0,2.3-7.9,4.1-17.7,4.1c-9.8,0-17.7-1.8-17.7-4.1l-8.7-37    C25.1,36.9,36.4,39.3,50,39.3z" class="st1" />
		</g>
		<rect id="rect23" height="11.4" width="11.5" class="st4" y="42.9" x="43.8" />
		<ellipse id="ellipse25" ry="5.6" rx="5.7" cy="63.9" cx="40.3" class="st4" />
		<polygon id="polygon27" points="64.1,69.3 52.7,69.3 58.4,58.8  " class="st4" />
	</g>
	<g id="Layer_2" />
</svg>